<svg id="visual" viewBox="0 0 960 540" width="960" height="540" xmlns="http://www.w3.org/2000/svg" xmlns:xlink="http://www.w3.org/1999/xlink" version="1.1"><rect x="0" y="0" width="960" height="540" fill="#001220"></rect><defs><linearGradient id="grad1_0" x1="43.8%" y1="0%" x2="100%" y2="100%"><stop offset="14.444444444444446%" stop-color="#001220" stop-opacity="1"></stop><stop offset="85.55555555555554%" stop-color="#001220" stop-opacity="1"></stop></linearGradient></defs><defs><linearGradient id="grad2_0" x1="0%" y1="0%" x2="56.3%" y2="100%"><stop offset="14.444444444444446%" stop-color="#001220" stop-opacity="1"></stop><stop offset="85.55555555555554%" stop-color="#001220" stop-opacity="1"></stop></linearGradient></defs><g transform="translate(960, 0)"><path d="M0 216C-27.7 212.9 -55.3 209.8 -82.7 199.6C-110 189.3 -137 171.9 -147.8 147.8C-158.5 123.6 -153 92.7 -161.7 67C-170.3 41.2 -193.2 20.6 -216 0L0 0Z" fill="#FBAE3C"></path></g><g transform="translate(0, 540)"><path d="M0 -216C29.3 -214 58.5 -212 82.7 -199.6C106.8 -187.2 125.8 -164.4 142.8 -142.8C159.8 -121.3 174.8 -100.9 186.6 -77.3C198.5 -53.7 207.2 -26.8 216 0L0 0Z" fill="#FBAE3C"></path></g></svg>