<svg id="visual" viewBox="0 0 960 200" width="960" height="200" xmlns="http://www.w3.org/2000/svg" xmlns:xlink="http://www.w3.org/1999/xlink" version="1.1"><rect x="0" y="0" width="960" height="200" fill="#FFE6BC"></rect><path d="M0 77L16 67.8C32 58.7 64 40.3 96 36.7C128 33 160 44 192 47.7C224 51.3 256 47.7 288 59C320 70.3 352 96.7 384 109.2C416 121.7 448 120.3 480 108.5C512 96.7 544 74.3 576 66C608 57.7 640 63.3 672 84.3C704 105.3 736 141.7 768 154C800 166.3 832 154.7 864 146.5C896 138.3 928 133.7 944 131.3L960 129L960 0L944 0C928 0 896 0 864 0C832 0 800 0 768 0C736 0 704 0 672 0C640 0 608 0 576 0C544 0 512 0 480 0C448 0 416 0 384 0C352 0 320 0 288 0C256 0 224 0 192 0C160 0 128 0 96 0C64 0 32 0 16 0L0 0Z" fill="#001220" stroke-linecap="round" stroke-linejoin="miter"></path></svg>